<?xml version="1.0" standalone="no"?>
<!DOCTYPE svg PUBLIC "-//W3C//DTD SVG 20010904//EN"
 "http://www.w3.org/TR/2001/REC-SVG-20010904/DTD/svg10.dtd">
<svg version="1.0" xmlns="http://www.w3.org/2000/svg"
 width="229.000000pt" height="220.000000pt" viewBox="0 0 229.000000 220.000000"
 preserveAspectRatio="xMidYMid meet">


<rect width="100%" height="100%" fill="white" rx="1000" ry="1000"/>

<g transform="translate(0.000000,220.000000) scale(0.100000,-0.100000)"
fill="#000000" stroke="none">
<path d="M1217 2030 c-35 -28 -71 -93 -96 -175 -31 -98 -41 -158 -33 -188 12
-47 25 -29 27 40 4 133 84 313 139 313 18 0 27 -9 39 -37 22 -56 40 -208 33
-275 -6 -61 -2 -69 20 -40 18 23 17 62 -1 180 -31 191 -61 234 -128 182z"/>
<path d="M1813 1968 c-38 -40 -118 -275 -108 -315 9 -37 25 -26 25 15 0 41 12
83 53 196 27 71 51 106 73 106 32 0 61 -109 69 -257 5 -90 4 -92 -25 -123 -35
-38 -38 -50 -10 -43 45 12 60 49 60 147 -1 220 -66 350 -137 274z"/>
<path d="M1300 1631 c0 -17 19 -22 37 -12 10 6 16 11 13 11 -38 8 -50 8 -50 1z"/>
<path d="M1383 1633 c-31 -12 -7 -18 70 -19 62 0 94 -6 131 -22 58 -26 56 -26
56 -7 0 31 -204 70 -257 48z"/>
<path d="M1679 1628 c-9 -33 -7 -55 6 -55 8 0 15 4 15 9 0 4 7 8 16 8 8 0 12
4 9 10 -6 10 -44 33 -46 28z"/>
<path d="M1081 1597 c20 -15 14 -33 -25 -77 -17 -19 -39 -46 -48 -59 l-17 -24
-43 25 c-54 31 -78 40 -78 28 0 -5 10 -12 23 -15 43 -14 86 -53 80 -75 -6 -24
-1 -23 -52 -5 -22 8 -41 10 -41 5 0 -4 16 -14 35 -20 19 -6 35 -17 35 -24 0
-7 -18 -40 -39 -74 -53 -81 -107 -199 -121 -264 -14 -63 -10 -190 6 -195 8 -3
10 17 7 64 -4 46 0 89 12 133 17 67 58 164 78 189 14 16 82 135 97 169 5 12
14 22 20 22 6 0 10 6 8 13 -5 25 33 76 76 104 25 15 45 34 46 41 0 7 -4 10
-10 7 -6 -4 -10 5 -10 19 0 22 -5 26 -27 26 -24 -1 -26 -2 -12 -13z"/>
<path d="M1860 1522 c0 -4 5 -13 12 -20 18 -18 28 -15 28 8 0 13 -7 20 -20 20
-11 0 -20 -4 -20 -8z"/>
<path d="M1140 1491 c-24 -12 -41 -32 -53 -63 -18 -40 -18 -47 -4 -81 33 -78
129 -101 191 -46 44 38 54 83 31 133 -35 73 -96 94 -165 57z m121 -32 c52 -56
30 -148 -40 -164 -41 -9 -96 17 -115 54 -15 28 -15 34 0 72 29 71 106 90 155
38z"/>
<path d="M1160 1420 c-17 -17 -18 -24 -10 -41 15 -27 34 -33 59 -19 25 13 27
42 5 64 -20 21 -30 20 -54 -4z"/>
<path d="M1852 1491 c-10 -6 -4 -18 22 -50 39 -46 71 -137 60 -166 -6 -14 -4
-16 6 -10 10 6 11 2 6 -19 -5 -19 -3 -26 8 -26 29 0 84 -299 72 -396 -5 -44
-3 -54 8 -54 23 0 29 59 16 157 -10 80 -42 242 -56 285 -4 15 1 18 37 18 23 0
39 3 35 8 -4 4 -26 7 -49 7 -35 0 -42 3 -42 20 0 17 12 23 80 37 44 9 69 17
55 17 -14 0 -51 -5 -83 -13 -31 -7 -59 -11 -61 -7 -2 3 -9 24 -16 46 -27 85
-77 160 -98 146z"/>
<path d="M1693 1420 c-44 -26 -62 -65 -54 -115 8 -50 29 -81 67 -96 34 -13 85
-14 93 -1 3 5 21 17 39 26 30 15 32 20 32 69 0 113 -88 171 -177 117z m135
-50 c40 -60 22 -118 -43 -140 -74 -24 -148 49 -123 122 12 34 30 49 71 58 44
9 68 -1 95 -40z"/>
<path d="M1742 1354 c-40 -28 -22 -74 30 -74 21 0 32 7 40 26 11 23 10 29 -11
45 -28 23 -31 23 -59 3z"/>
<path d="M1425 1391 c-12 -20 6 -31 51 -31 38 0 45 3 42 18 -2 12 -15 18 -45
20 -22 2 -44 -2 -48 -7z"/>
<path d="M411 1215 c-13 -35 -21 -80 -21 -119 l0 -64 -42 -10 c-37 -10 -44 -9
-52 6 -18 35 -145 152 -165 152 -46 0 -52 -59 -16 -175 29 -92 31 -157 9 -251
-17 -76 -12 -147 18 -233 20 -61 40 -86 81 -108 41 -21 43 -10 4 20 -66 50
-109 204 -86 305 22 93 27 175 13 212 -7 19 -22 69 -34 110 -17 65 -18 76 -6
89 13 12 18 12 41 -3 46 -30 116 -110 122 -139 4 -21 10 -26 22 -21 9 4 36 12
61 19 l45 12 5 90 c5 87 25 143 51 143 13 0 89 -158 89 -185 0 -12 11 -43 24
-71 77 -158 108 -255 107 -342 0 -110 -31 -186 -89 -216 -61 -31 -215 -48
-290 -31 -25 5 -31 3 -37 -15 -8 -26 3 -40 16 -20 8 13 10 13 19 0 6 -10 13
-11 17 -5 5 6 40 11 78 12 39 2 91 6 117 11 32 6 51 6 59 -2 8 -8 13 -8 16 2
4 10 8 10 19 1 10 -8 14 -8 14 0 0 6 7 11 15 11 18 0 20 26 3 34 -10 5 -10 7
0 12 56 26 82 230 42 339 -12 33 -30 84 -41 114 -10 29 -29 69 -41 89 -12 20
-23 43 -24 51 -3 36 -26 102 -51 147 -56 104 -82 111 -112 29z"/>
<path d="M1167 1119 c-56 -13 -140 -55 -167 -84 -33 -35 -17 -44 17 -10 42 42
118 72 214 86 75 11 100 10 179 -4 110 -20 191 -55 242 -104 21 -20 40 -34 43
-31 12 11 -80 90 -133 114 -29 13 -83 29 -120 34 -81 12 -223 11 -275 -1z"/>
<path d="M937 993 c-3 -5 -8 -27 -12 -50 -4 -24 -17 -59 -31 -78 -17 -25 -20
-35 -9 -35 28 0 74 95 75 158 0 13 -16 17 -23 5z"/>
<path d="M1716 949 c-42 -105 -40 -191 6 -223 12 -9 18 -21 15 -30 -3 -8 -2
-18 4 -21 5 -4 12 1 15 9 3 9 10 16 15 16 4 0 6 -7 3 -15 -4 -10 0 -15 11 -15
13 0 16 6 13 24 -4 17 -1 23 9 19 7 -3 11 -9 8 -13 -7 -12 6 -41 16 -35 4 3 6
11 3 18 -3 8 9 17 28 22 32 10 39 33 8 27 -49 -9 -61 -8 -71 4 -17 21 -32 17
-26 -6 5 -21 -4 -19 -35 8 -27 23 -31 73 -13 162 9 45 15 84 12 86 -2 3 -12
-14 -21 -37z"/>
<path d="M492 954 c-59 -41 -41 -124 28 -124 76 0 107 64 55 115 -28 29 -51
31 -83 9z m69 -14 c29 -16 25 -65 -7 -87 -24 -15 -29 -15 -53 -2 -34 19 -38
52 -10 78 25 23 41 26 70 11z"/>
<path d="M520 901 c0 -15 6 -21 21 -21 25 0 22 33 -4 38 -12 2 -17 -3 -17 -17z"/>
<path d="M1060 937 c-33 -17 -69 -72 -63 -97 6 -24 25 -25 59 -4 17 12 37 15
65 11 45 -6 56 5 45 49 -4 16 -19 30 -41 40 -41 17 -34 17 -65 1z m70 -27 c28
-28 25 -40 -10 -40 -17 0 -46 -6 -65 -14 -42 -18 -55 -5 -29 27 44 53 71 60
104 27z"/>
<path d="M1273 930 c-18 -10 -39 -32 -47 -49 -14 -26 -14 -30 0 -42 12 -10 21
-9 50 4 45 22 57 21 79 -3 28 -31 59 -22 63 18 3 25 -3 39 -27 62 -35 35 -72
39 -118 10z m109 -22 c15 -15 18 -23 9 -26 -9 -3 -9 -7 0 -18 15 -18 -2 -18
-27 1 -26 19 -60 19 -95 -2 -15 -9 -32 -14 -35 -10 -9 9 46 68 57 61 4 -2 10
0 14 6 11 17 54 11 77 -12z"/>
<path d="M2060 941 c0 -5 14 -14 30 -20 39 -13 55 -29 73 -72 19 -47 6 -159
-26 -208 -12 -20 -29 -49 -37 -65 -17 -34 -82 -87 -127 -105 -54 -22 -103 -30
-103 -18 0 6 -12 -3 -27 -21 -16 -17 -52 -41 -82 -52 -51 -20 -67 -21 -275
-15 -217 7 -306 18 -382 50 -38 15 -59 11 -84 -20 -19 -23 -5 -30 22 -11 12 9
29 16 36 16 12 0 11 -4 -1 -24 -9 -13 -13 -26 -10 -29 9 -9 53 24 47 35 -4 6
2 7 17 3 32 -10 32 -10 20 -34 -15 -28 2 -35 25 -10 17 19 26 20 89 14 39 -3
111 -6 160 -6 147 1 191 -7 204 -36 13 -28 35 -21 26 8 -5 16 -1 19 27 19 22
0 37 -7 46 -20 18 -29 33 -25 30 7 -2 22 2 29 20 31 13 2 25 -3 28 -12 3 -9
12 -16 20 -16 19 0 18 10 -3 26 -17 12 -15 16 22 46 21 18 47 31 57 30 39 -7
119 30 173 80 160 146 167 396 13 432 -16 4 -28 2 -28 -3z"/>
<path d="M226 909 c-36 -28 -36 -80 0 -108 56 -44 128 -14 128 54 0 68 -72 98
-128 54z m100 -24 c34 -53 -28 -106 -85 -74 -34 19 -37 39 -11 72 29 36 73 37
96 2z"/>
<path d="M257 866 c-7 -19 18 -42 28 -26 8 13 -1 40 -14 40 -5 0 -11 -6 -14
-14z"/>
<path d="M1519 877 c-19 -13 -34 -31 -34 -42 0 -17 7 -20 41 -20 29 0 49 -7
73 -28 19 -15 38 -26 44 -24 17 5 20 27 4 27 -9 0 -22 6 -29 13 -27 27 -59 38
-91 31 l-32 -6 25 26 c26 29 70 33 78 7 3 -9 0 -11 -9 -6 -11 6 -11 5 -2 -5
13 -15 36 -4 27 13 -4 7 3 2 15 -10 23 -24 41 -30 41 -14 0 18 -62 61 -89 61
-16 0 -43 -10 -62 -23z"/>
<path d="M2085 839 c-4 -5 3 -9 14 -9 26 0 35 15 11 17 -11 1 -22 -2 -25 -8z"/>
<path d="M817 803 c-11 -10 -8 -43 3 -43 6 0 10 11 10 25 0 26 -2 29 -13 18z"/>
<path d="M847 793 c10 -29 14 -34 24 -28 5 4 5 14 -1 26 -13 24 -32 25 -23 2z"/>
<path d="M832 696 c4 -47 13 -68 54 -128 50 -73 101 -121 142 -133 33 -10 27
11 -8 25 -70 29 -170 174 -170 247 0 17 -5 35 -11 39 -9 5 -10 -9 -7 -50z"/>
<path d="M1850 608 c0 -75 -57 -170 -123 -205 -16 -8 -26 -17 -23 -20 11 -11
68 17 92 47 14 16 29 28 34 25 9 -5 40 117 40 158 0 15 -4 27 -10 27 -5 0 -10
-14 -10 -32z"/>
<path d="M1990 596 c0 -2 7 -7 16 -10 8 -3 12 -2 9 4 -6 10 -25 14 -25 6z"/>
<path d="M1945 570 c3 -5 13 -10 21 -10 8 0 12 5 9 10 -3 6 -13 10 -21 10 -8
0 -12 -4 -9 -10z"/>
</g>
</svg>
